<?xml version="1.0" encoding="UTF-8"?>
<svg id="Capa_1" data-name="Capa 1" xmlns="http://www.w3.org/2000/svg" viewBox="0 0 161 155.6">
  <defs>
    <style>
      .cls-1 {
        fill: #221f20;
      }
    </style>
  </defs>
  <path class="cls-1" d="M68.34,41.63c-1.39-7.95,1.33-13.53,8.18-16.74,.52-.25,.75-.68,.69-1.28-.84-7.53-3.79-13.92-8.84-19.16-.39-.41-.64-.94-.71-1.51-.07-.57,.04-1.16,.31-1.66,.28-.5,.7-.89,1.2-1.1,.5-.21,1.06-.24,1.58-.08,6.37,2.02,11.05,17.23,11.82,23.34,.07,.56,.36,.92,.85,1.09,6.4,2.13,9.7,6.77,9.89,13.93,.02,.54-.05,1.06-.21,1.58l-.49,1.7c-.11,.38,0,.66,.32,.85l7.71,4.55c.47,.27,.94,.28,1.43,.03l3.37-1.75c.47-.24,.65-.63,.56-1.18-1.43-8.09,1.33-13.68,8.29-16.77,.46-.21,.66-.58,.6-1.1-.9-7.54-3.83-14-8.79-19.36-.28-.3-.47-.67-.57-1.07-.1-.41-.09-.83,.01-1.23s.31-.77,.6-1.06c.28-.29,.63-.49,1.01-.59,6.79-1.76,12.46,18.14,13.05,23.19,.06,.51,.31,.83,.77,.97,5.86,1.81,9.15,5.87,9.86,12.17,.18,1.61-.43,3.24-.49,5.05,0,.61,.25,1.02,.78,1.22,6.37,2.43,11.22,6.75,14.55,12.96,.25,.46,.62,.65,1.12,.58,8.43-1.18,14.51,.42,14.18,11.2-.17,5.81-7.13,11.76-11.71,14.18-.16,.09-.29,.23-.36,.4-.08,.17-.1,.37-.07,.55,.03,.19,.13,.35,.26,.48,.13,.12,.3,.19,.48,.2,7.9,.52,8.28,11.68,1.75,15.3-.41,.23-.69,.58-.84,1.06-6.06,19.19-39.36,23.75-55.03,25.8-3.04,.4-6.1,1.99-4.17,5.82,5.15,10.27,18.37,0,21.9,16.53,.69,3.24-.7,4.9-3.77,4.88-19.16,0-38.32,0-57.46,0-3.4,0-4.97-1.34-4.03-5.14,1.76-7.14,6.23-10.69,12.94-10.96,4.09-.17,9.49-2.84,9.03-7.24-.27-2.57-1.61-3.94-4.02-4.1-15.51-1.08-49.13-6.66-55.53-25.89-.16-.49-.45-.84-.88-1.06-7.34-3.88-4.89-13.33,2.37-15.32,.12-.03,.22-.11,.3-.2,.08-.1,.13-.22,.14-.35,.01-.13-.01-.26-.07-.37-.06-.11-.15-.21-.26-.26-7.18-3.81-15.05-12.21-10.71-21.6,2.07-4.51,9.23-4.21,13.26-4.21,.48,0,.84-.21,1.09-.66,3.43-6.1,8.29-10.32,14.59-12.66,.49-.18,.68-.54,.57-1.08-1.56-7.96,1.04-13.57,7.78-16.83,.77-.37,1.08-1,.95-1.88-1.06-7.33-4-13.63-8.79-18.9-.3-.33-.49-.75-.55-1.2-.06-.45,.02-.9,.22-1.3,1.51-2.91,4.27-1.33,5.81,.63,4.8,6.15,7.71,13.25,8.74,21.31,.06,.45,.29,.74,.7,.88,7.66,2.62,10.83,8.33,9.49,17.12-.08,.6,.13,1.02,.64,1.27l3.33,1.6c.48,.23,.94,.21,1.39-.06l7.39-4.46c.39-.23,.55-.58,.46-1.05Zm8.16,2.27c7.78,6.45,16.82-6.96,7.57-13.27-.61-.42-.98-.25-1.11,.51l-.45,2.42c-.08,.49-.32,.87-.7,1.15-2.27,1.63-3.79-1-4.07-3.14-.03-.22-.12-.42-.26-.58-.14-.16-.32-.28-.52-.33-.2-.05-.41-.04-.61,.03-.2,.07-.37,.21-.49,.38-3.65,5.19-3.44,9.47,.63,12.84Zm-37.86,2.69c8.88,6.87,16.72-8.44,7.56-13.33-.54-.29-.83-.11-.87,.52-.06,1.03-.14,1.78-.27,2.27-.14,.57-.46,1.08-.92,1.42-.45,.35-1,.51-1.56,.47-.55-.04-1.07-.3-1.47-.71-.39-.41-.64-.96-.69-1.55l-.17-1.79c-.07-.63-.35-.79-.87-.49-4.97,2.82-5.33,9.66-.76,13.2Zm81.13-9.24c-1.82,.82-3.1,.36-3.84-1.37-.19-.43-.28-.88-.28-1.34v-.78c0-.69-.28-.87-.84-.54-3.37,1.94-4.6,4.9-3.7,8.87,3.4,14.93,23.69-.78,10.5-8.78-.58-.35-.9-.17-.95,.54l-.17,2.33c-.02,.23-.09,.46-.22,.65-.13,.19-.3,.34-.51,.43Zm-49.09,10.26c-9.33,3.58-16.33,12.96-14.95,23.99,.07,.55,.35,.87,.87,.97,15.83,3.29,31.67,3.31,47.52,.06,.47-.1,.9-.37,1.2-.77,.3-.4,.46-.9,.44-1.41-.39-11.41-5.61-19-15.65-22.77-.21-.08-.43-.1-.64-.07-.22,.03-.42,.12-.59,.26-5.63,4.37-11.21,4.35-16.75-.04-.45-.35-.93-.42-1.44-.22Zm-49.38,13.44l28.03,10.06c.13,.05,.26,.06,.4,.04,.13-.02,.26-.08,.37-.17,.11-.09,.19-.2,.25-.33,.06-.13,.08-.27,.07-.42-.41-6.71,1.39-12.6,5.4-17.68,.07-.09,.13-.21,.15-.33,.03-.12,.02-.25,0-.37-.03-.12-.08-.23-.16-.32-.08-.09-.17-.16-.28-.21l-2.72-1.1c-.48-.19-.92-.12-1.34,.19-5.87,4.61-11.66,4.55-17.36-.16-.32-.28-.67-.33-1.06-.16-4.81,2.02-8.86,5.13-12.15,9.33-.1,.13-.17,.28-.2,.45-.03,.16-.03,.33,.01,.49,.04,.16,.12,.31,.23,.43,.11,.12,.24,.21,.39,.26Zm119.11-.99c-2.6-4.57-7.85-8.23-12.57-9.81-.37-.13-.72-.07-1.04,.18-5.83,4.62-11.57,4.58-17.21-.1-.45-.38-1.01-.57-1.58-.54-.57,.03-1.11,.28-1.52,.71-.41,.42-.66,.99-.71,1.6-.05,.61,.12,1.21,.46,1.7,3.38,4.89,4.87,10.33,4.47,16.32-.07,.99,.34,1.32,1.2,1l28.21-10.21c.42-.15,.51-.43,.28-.84Zm14.07,5.14c-4.14-1.01-7.16-1.14-9.06-.4-14.36,5.63-26.72,9.79-37.1,12.47-30.59,7.88-59.2,.75-88.21-10.93-4.3-1.73-8.8-2.18-13.5-1.36-.23,.04-.45,.15-.62,.31-.18,.16-.3,.38-.37,.61-2.32,8.6,10.04,15.44,15.85,18.2,2.35,1.12,5.1,1.69,8.23,1.69,33.64,.04,67.28,.04,100.91,.01,3.48,0,6.48-.57,9-1.72,5.06-2.3,18.93-10.21,15.89-17.98-.2-.49-.54-.79-1.02-.91Zm-3.79,28.74c0-.67-.25-1.31-.69-1.78-.44-.47-1.04-.74-1.67-.74H12.7c-.63,0-1.23,.27-1.67,.74s-.69,1.11-.69,1.78v.18c0,.33,.06,.66,.18,.97,.12,.31,.29,.58,.51,.82s.48,.42,.77,.55c.29,.13,.59,.19,.91,.19H148.32c.31,0,.62-.07,.91-.19,.29-.13,.55-.31,.77-.55,.22-.23,.39-.51,.51-.82,.12-.31,.18-.63,.18-.97v-.18ZM19.57,102.12c-.66-.28-1.44-.36-2.32-.24-.24,.03-.47,.13-.66,.3-.19,.16-.33,.38-.41,.62-.08,.25-.09,.51-.03,.76,.06,.25,.18,.48,.35,.66,19.94,21.25,63.75,21.05,89.34,17.04,14.7-2.3,30.02-6.15,39.05-18.01,.09-.12,.15-.26,.17-.41,.02-.15,0-.3-.07-.44-.06-.14-.16-.25-.28-.33-.12-.08-.26-.12-.4-.12-41.27-.13-82.52-.15-123.76-.07-.08,0-.16,.01-.24,.04-.12,.05-.24,.11-.36,.18-.13,.07-.26,.07-.39,.01Zm68.13,37.2c.05,0,.1-.01,.14-.04,.04-.03,.08-.07,.1-.12,.02-.05,.03-.1,.02-.16,0-.05-.03-.1-.06-.15-1.98-2.71-2.75-5.8-2.32-9.27,.07-.58-.16-.87-.71-.87h-8.81c-.58,0-.81,.3-.7,.91,.61,3.18-.03,6.05-1.92,8.61-.07,.09-.11,.19-.12,.31-.01,.11,0,.22,.05,.33,.05,.1,.12,.19,.21,.25,.09,.06,.19,.09,.3,.09l13.82,.1Zm19.18,10.69c.1,0,.2-.03,.29-.08,.09-.06,.16-.14,.21-.24,.05-.1,.07-.21,.06-.32,0-.11-.04-.22-.1-.31-2.16-3.35-4.94-4.27-8.89-4.27-11.98-.03-23.96-.03-35.94,.01-3.79,.01-6.59,.97-8.62,4.21-.41,.67-.24,1,.5,1h52.49Z"/>
</svg>