<?xml version="1.0" encoding="UTF-8"?>
<svg id="Capa_1" data-name="Capa 1" xmlns="http://www.w3.org/2000/svg" viewBox="0 0 160 155.6">
  <defs>
    <style>
      .cls-1 {
        fill: #221f20;
      }
    </style>
  </defs>
  <path class="cls-1" d="M118.12,29.22h12.69c.62,0,1.21,.18,1.64,.5,.44,.32,.68,.75,.68,1.2v117.56c0,1.88-1.02,3.69-2.84,5.02-1.82,1.33-4.29,2.08-6.86,2.09-26.25,.03-52.91,.03-79.96,0-6.95,0-9.64-3.78-9.7-8.59-.33-29.39,.3-58.79-.35-88.19-.01-.47-.33-.74-.97-.8C9.97,55.53-5.01,40.16,1.55,24.09,13.07-4.05,67.32-.23,73.36,28.43c.11,.53,.53,.79,1.26,.79h34.14c.34,0,.66-.09,.92-.25,.26-.16,.43-.38,.49-.62L116.64,1.3c.09-.37,.35-.7,.74-.93C117.77,.13,118.26,0,118.77,0h38.08c.64,0,1.27,.15,1.8,.42,.52,.27,.91,.66,1.12,1.1,.58,1.24,.07,2.25-1.54,3.02-.24,.11-.52,.17-.8,.19-11.06,.54-22.13,.57-33.19,.07-.39-.02-.78,.07-1.09,.25-.31,.18-.52,.43-.58,.72l-5.39,22.64c-.12,.54,.19,.82,.95,.82ZM7.68,27.23c-3.64,12.33,7.95,23.63,24.77,25.74,.74,.09,1.12-.14,1.13-.69l.19-21.21c0-.49,.27-.96,.75-1.31,.47-.35,1.11-.54,1.78-.54h29.03c.77,0,1.08-.27,.95-.82C60.39,4.43,14.73,3.42,7.68,27.23Zm118.49,121.57V34.99c0-.68-.46-1.02-1.39-1.02h-7.77c-.36,0-.7,.09-.97,.26-.27,.17-.46,.4-.52,.65l-5.95,24.98c-.02,.1-.01,.2,.02,.3,.04,.1,.11,.18,.2,.26,.09,.07,.2,.13,.33,.17,.13,.04,.26,.06,.4,.05l5.07-.22c.58-.02,1.16,.04,1.71,.18,.55,.15,1.05,.37,1.47,.66,.42,.29,.76,.64,.99,1.03,.23,.39,.35,.81,.35,1.23,.05,22.83,.04,45.91-.02,69.24-.02,6.73-2.06,10.56-12.04,10.59-15.99,.04-31.99,.03-47.98-.03-6.78-.01-13.34-1.58-13.34-7.09V63.47c0-.39,.11-.78,.31-1.15,.21-.36,.51-.7,.89-.97,.38-.28,.83-.5,1.33-.65,.5-.15,1.03-.23,1.57-.23h50.66c.62,0,.99-.23,1.1-.68l5.87-24.56c.04-.16,.02-.32-.03-.47-.06-.15-.16-.29-.3-.41-.14-.12-.31-.22-.5-.28-.19-.07-.4-.1-.62-.1l-65.9,.05c-.24,0-.46,.07-.63,.19-.17,.12-.26,.29-.26,.46v113.78c0,.54,.29,1.06,.82,1.44,.52,.38,1.23,.6,1.97,.6H123.85c.62,0,1.21-.18,1.64-.5,.44-.32,.68-.75,.68-1.2Zm-13.01-12.68V67.28c-.02-.48-.28-.94-.73-1.29-.45-.35-1.06-.57-1.71-.61-.65-.04-1.31,.09-1.83,.38-.53,.29-.89,.71-1.02,1.18l-14.61,60.5c-.14,.56-.58,.89-1.34,.99l-2.66,.35c-.39,.05-.8,.04-1.18-.05-.38-.09-.73-.24-1.01-.45s-.49-.46-.61-.74c-.12-.28-.14-.58-.07-.87l14.61-60.23c.15-.59-.19-.88-1-.88H54.85c-.31,0-.61,.09-.83,.25-.22,.16-.34,.38-.34,.61l.02,70.11c0,.44,.24,.86,.66,1.17,.42,.31,1,.49,1.6,.49l53.98,.27c.42,0,.84-.06,1.23-.17,.39-.12,.74-.29,1.04-.51,.3-.22,.54-.48,.7-.76,.16-.29,.25-.59,.25-.9Z"/>
</svg>