<?xml version="1.0" encoding="UTF-8"?>
<svg id="Capa_7" data-name="Capa 7" xmlns="http://www.w3.org/2000/svg" viewBox="0 0 322.74 531.85">
  <defs>
    <style>
      .cls-1 {
        fill: #741614;
      }

      .cls-2 {
        fill: #dec061;
      }
    </style>
  </defs>
  <path class="cls-2" d="M169.29,127.63l-5.56,15.3c-.26,.73,.25,1.53,1.02,1.54,1.61,.03,3.61,.99,2.1,6.2-2.34,8.1-5.94,10.62-4.5,14.4,0,0,6.52,14.66,7.14,22.14,.1,1.25-1.24,5.04-1.6,6.01-.06,.16-.07,.32-.05,.49,1.07,7.62-.47,13.25-.62,13.8,0,.03-.02,.06-.03,.09-3.42,8.42-9.17,8.24-14.2,8.6-4.13,.29-10.18-2.67-12.24-3.75-.43-.23-.96-.14-1.32,.2-3.16,3.03-6.4,5.17-6.9,5.49-.05,.03-.09,.05-.14,.07-24.24,9.98-31.43-20.93-38.98-33.15s-18.72-16.56-18.72-16.56c-13.68-4.86-19.71-14.49-22.32-22.91-2.12-6.83-2.25-14.12-.75-21.12,15.21-71.32,83.22-78.91,84.96-79.1,.02,0,.05,0,.07-.01,80.97-15.09,124.52,51.61,129.56,95.05,4.95,42.64-17.39,70.94-18.22,71.97-.02,.02-.03,.04-.04,.06-.65,.99-16.12,24.35-40.78,36.33-25.2,12.24-71.82,11.52-102.78,7.74s-41.76-.9-41.76-.9c-42.15,7.05-46.63,31.73-46.8,32.73,0,.02,0,.04,0,.06-1.69,16.44,11.52,19.41,11.52,19.41,21.24,9.72,20.94-59.76,20.94-59.76l-.05-3.02c0-.5-.34-.94-.82-1.09-1.72-.51-5.86-2.15-9.33-6.82-4.5-6.06-3.27-12.93-2.97-14.49,.28-1.47,1.84-6.76,2.02-7.38,.01-.04,.02-.09,.03-.13,.92-7.1-1.78-9.58-2.26-9.96-.05-.04-.09-.06-.15-.09-1.56-.78-1.41-1.56-1.41-1.56-.32-2.11,4.07-1.22,5.96,.88s2.46,5.82,3.15,9.03,2.01,1.35,2.01,1.35c1.89-1.65-1.14-8.61-1.14-8.61-3.24-7.53,.66-11.31,1.2-11.46s.87,3.3,.87,3.3c.25-3.36,2.95-6.53,3.35-6.99,.04-.04,.07-.07,.11-.1,1.61-1.17,3.78-3.88,3.78-3.88,.87-.82,.65-2.97,2.03-3.33s2.52,2.78,2.61,4.37-.72,6.18-.93,6.87-.93,3.09-.99,5.49c0,.07,0,.13,0,.2,0,.94,1.04,1.37,1.85,.9,.21-.13,.49-.15,.85-.01,0,0,.85,.21,1.21,2.28s4.17,7.14,4.51,7.59c.02,.02,.03,.04,.05,.06,.19,.21,1.5,1.63,2.62,3.28,.47,.68,1.53,.74,1.94,.02,.23-.4,.58-.56,1.13-.22,0,0,3.28,3.83,1.98,12.33,0,0-1.85,11.65-11.34,16.46-.4,.2-.66,.61-.65,1.07l1.15,37.58s0,.05,0,.08c.16,1.43,4.39,43.12-32.37,42.08-.02,0-.04,0-.07,0-1.2-.09-35.08-3.08-26.98-37.7,0-.02,.01-.05,.01-.07,.17-1.27,5.98-41.3,79.16-41.79,.03,0,.05,0,.08,0,1.92,.16,76.07,6.43,96.44,2.64,20.63-3.84,44.86-12.71,63.33-41.48,.02-.02,.03-.05,.05-.07,.75-.96,18.65-24.44,16.54-58.05,0,0-1.92-33.81-23.01-58.53-.02-.02-.03-.04-.05-.06-.87-1.33-30.85-46.31-104.62-31.89,0,0-54.84,7.32-66.72,69.6,0,0-5.43,23.32,16.68,29.17,.87,.23,1.65-.6,1.38-1.45-1.18-3.71-3.21-11.54,.54-11.99,4.92-.6,4.32-.48,2.4-7.44s-11.04-17.64-6.36-19.8,11.75,12.89,21.67,24.39c.56,.65,1.62,.46,1.92-.35,2.04-5.39,7.92-21.83,7.12-29.68-.96-9.48-.84-11.88,3.12-12.6,0,0,4.55-1.2,4.32,12.67,0,.04,0,.07,0,.1,.18,1.21,3.79,24.46,14.59,34.81,.51,.49,1.34,.42,1.73-.18,3.07-4.61,14.77-23.02,15.11-35.69,0-.03,0-.05,0-.08-.02-.7-.2-10.84,4.32-10.58,0,0,6.53-1.25,3.72,12.11-.02,.09-.03,.18-.02,.26l.62,22.83c.03,1.1,1.44,1.54,2.09,.64l3.95-5.42c.2-.27,1.91-3.12,2.07-3.42,1.23-2.27,4.01-7.03,6.4-4.71,.72,.7,.97,1.76,.78,2.75-.23,1.25-.67,3.23-1.34,4.57Z"/>
  <g id="Capa_8" data-name="Capa 8">
    <path class="cls-2" d="M11.1,291.61s19.2-29.04,62.64-25.68c43.44,3.36,131.64,25.68,162.24-37.32,0,0-20.4,21-33.12,27s-26.4,14.16-83.76,9.12-82.08-11.76-108,26.88Z"/>
    <path class="cls-2" d="M238.08,214.21s28.36-123.02-92.82-143.28c0,0,143.65-8.84,92.82,143.28Z"/>
    <path class="cls-2" d="M209.34,60.49s-124.56-4.29-112.25,92.56c0,0-41.68-107.7,112.25-92.56Z"/>
  </g>
  <g id="Capa_9" data-name="Capa 9">
    <path class="cls-1" d="M102.54,156.73c.24-.96,3.84-22.8,8.64-22.08s7.44,20.64,19.44,20.64,15.36-18.48,15.36-18.48c0,0,5.52-7.44,5.28,11.52s-2.16,10.32,.48,16.32,12.96,19.86,5.22,21.84c-7.74,1.98-16.2-14.4-25.2-2.7,0,0-8.82,11.52-14.04-.9l-15.18-26.16Z"/>
    <path class="cls-1" d="M100.8,166.51l-1.08,6.84s12.06,36.54,22.14,36.9,13.86-15.12,28.08-5.04c0,0,9.9,4.86,8.82-7.02,0,0-11.52-1.8-19.8-9.18,0,0-8.64,12.96-15.84,10.26s-10.44-3.6-15.84-18.54l-6.48-14.22Z"/>
  </g>
  <g id="Capa_10" data-name="Capa 10">
    <path class="cls-2" d="M92.1,202.3c2.65-2.1,16.11-11.37,28.76-3.78,.36,.21,.74,.39,1.14,.5l1.59,.44c4.74,1.3,7.63-5.05,3.54-7.78-1.85-1.23-3.24-2.16-3.85-2.57-.23-.15-.46-.28-.71-.39-12.19-5.13-38.14,1.13-44.85,16.63-1.78,4.11,3.08,7.91,6.61,5.16,0,0,4.95-5.98,7.77-8.21Z"/>
    <path class="cls-2" d="M187.91,203.51c-10.76-21.58-27.56-16.51-27.56-16.51-.17,.03-.33,.07-.5,.11-7.57,2.19-10.38,4.15-8.54,7.01,1.59,2.48,11.75,1.31,14.66,.92,.53-.07,1.06-.05,1.57,.08,6.11,1.65,9.83,6.7,11.19,8.9,.23,.38,.43,.77,.61,1.18,.63,1.42,2.89,5.49,7.35,3.05,0,0,2.63-1.91,1.22-4.76Z"/>
  </g>
</svg>