<?xml version="1.0" encoding="UTF-8"?>
<svg id="Capa_1" data-name="Capa 1" xmlns="http://www.w3.org/2000/svg" viewBox="0 0 160 155.6">
  <defs>
    <style>
      .cls-1 {
        fill: #221f20;
      }
    </style>
  </defs>
  <path class="cls-1" d="M80.81,4.39l76.82-1.64c.31,0,.61,.05,.9,.15,.29,.11,.55,.27,.77,.48,.22,.21,.4,.46,.52,.73,.12,.27,.18,.57,.18,.87V24.84c0,.3-.06,.6-.18,.88-.12,.28-.3,.53-.52,.74-.22,.21-.49,.38-.78,.49-.29,.11-.6,.16-.91,.16l-77.06-1.49c-.14,0-.27,.05-.37,.14-.1,.09-.15,.22-.15,.34l.04,29.22c0,.48,.24,.65,.72,.51,15.46-4.37,29.15-2.12,41.08,6.76,5.27,3.93,9.47,9.86,10.44,15.98,.2,1.26,.95,1.86,2.27,1.8,4.05-.16,5.95-.2,5.64,4.42-.21,3.22,.07,7.03-.59,10-4.72,21.32-17.67,36.06-38.85,44.23-.49,.19-.73,.54-.73,1.04v13.17c0,.63-.26,1.23-.72,1.68-.46,.45-1.08,.69-1.74,.69H42.88c-.84,0-1.64-.32-2.23-.89-.59-.57-.92-1.35-.92-2.16v-12.52c0-.52-.25-.88-.76-1.07C14.05,129.57-2.31,107.66,.27,81.53c.03-.31,.18-.59,.41-.79,.23-.21,.54-.32,.85-.32h6.61c.17,0,.33-.03,.49-.1,.15-.06,.29-.16,.4-.28,.11-.12,.2-.26,.25-.42,.05-.15,.08-.32,.06-.48-2.76-30.44,23.75-36.15,42.01-16.42,.27,.29,.62,.49,1.01,.58s.8,.07,1.17-.07c.37-.14,.7-.38,.92-.7,.23-.32,.35-.7,.35-1.08V25.99c0-.6-.31-.92-.93-.96l-3.1-.2c-.61-.05-.91,.23-.9,.83,.07,4.88,.7,10.48-1.37,14.74-2.52,5.17-6.94,8.06-13.27,8.66-.46,.04-.92-.03-1.35-.21-.42-.18-.8-.45-1.08-.8-.28-.35-.47-.77-.54-1.2-.07-.44-.03-.89,.13-1.31,.42-1.13,1.37-1.73,2.86-1.8,10.93-.5,9.38-10.84,9.54-17.95,0-.1-.01-.2-.05-.29-.04-.09-.09-.18-.16-.25-.07-.07-.15-.13-.25-.17-.09-.04-.2-.06-.3-.07l-7.29-.37c-.52-.02-1.01-.24-1.37-.6-.36-.36-.56-.85-.56-1.35V6.85c0-.39,.15-.76,.43-1.04,.27-.28,.65-.45,1.05-.47l7.94-.42c.19-.01,.37-.09,.51-.22,.13-.13,.21-.31,.22-.5l.08-2.34c0-.3,.09-.6,.25-.87,.15-.27,.37-.5,.63-.67,.26-.17,.56-.28,.88-.32,.31-.04,.63,0,.93,.1,1.9,.66,2.59,1.92,2.09,3.79-.03,.12-.04,.24-.01,.36,.03,.12,.08,.23,.16,.32,.08,.1,.18,.17,.29,.23,.11,.05,.24,.08,.36,.08h3.48c.12,0,.23-.03,.34-.07s.2-.12,.28-.2c.08-.09,.13-.19,.16-.3,.03-.11,.03-.22,0-.33-.95-4.74,5.99-4.78,4.84-.31-.03,.1-.03,.21,0,.32,.02,.1,.07,.2,.14,.29s.15,.15,.25,.2c.1,.05,.21,.07,.32,.07h3.83c.11,0,.23-.02,.33-.07,.1-.05,.19-.12,.26-.2,.07-.09,.12-.19,.14-.29,.02-.11,.02-.22,0-.33-1.08-4.1,5.51-4.65,4.9,.11-.07,.52,.18,.79,.73,.79h3.46c.24,0,.47-.09,.65-.24,.18-.16,.29-.38,.32-.61l.22-2.1c.03-.25,.15-.49,.33-.66,.19-.18,.43-.28,.69-.3l2.26-.19c.61-.05,.97,.22,1.08,.8l.5,2.59c.07,.37,.3,.55,.69,.54Zm-1,6.48c-.06,.19-.08,.4-.05,.6,.03,.2,.12,.39,.24,.55,.12,.16,.29,.3,.48,.39,.19,.09,.4,.14,.61,.14l73.04-.03c.26,0,.5-.1,.68-.27,.18-.17,.28-.41,.28-.65v-3.01c0-.49-.25-.73-.74-.72l-73.26,1.42c-.51,0-.85,.25-1.01,.72l-.27,.85Zm-9.2,1.92l3.97-.2c.08,0,.17-.02,.24-.06,.08-.03,.15-.08,.2-.14,.06-.06,.1-.13,.13-.21s.04-.16,.04-.24l-.08-1.58c-.02-.31-.3-.6-.78-.79-.48-.2-1.12-.29-1.77-.25h-.31c-.66,.05-1.28,.2-1.73,.45-.45,.24-.7,.56-.68,.87l.08,1.58c0,.08,.03,.16,.06,.24,.04,.07,.09,.14,.15,.19,.06,.05,.14,.1,.22,.12,.08,.03,.17,.04,.25,.03Zm-5.56-1.5c.01-.21-.05-.43-.18-.64-.13-.21-.32-.4-.56-.56-.24-.16-.54-.3-.86-.4-.33-.1-.68-.16-1.03-.17-.36-.02-.71,0-1.05,.08s-.64,.17-.9,.31c-.26,.14-.47,.31-.62,.5-.15,.19-.23,.4-.24,.62s.05,.43,.18,.64c.13,.21,.32,.4,.56,.56,.24,.16,.54,.3,.86,.4,.33,.1,.68,.16,1.03,.17,.36,.02,.71,0,1.05-.08s.64-.17,.9-.31c.26-.14,.47-.31,.62-.5,.15-.19,.23-.4,.24-.62Zm-20.06-.2c0-.16-.05-.32-.12-.47-.07-.15-.17-.28-.3-.39-.12-.11-.27-.2-.43-.25-.16-.06-.33-.08-.5-.07l-2.66,.11c-.34,.01-.66,.16-.9,.4-.23,.24-.35,.57-.34,.9v.19c.02,.16,.06,.32,.13,.47,.07,.15,.17,.28,.3,.39,.12,.11,.27,.2,.43,.25,.16,.06,.33,.08,.5,.07l2.66-.11c.34-.01,.66-.16,.9-.4,.23-.24,.35-.57,.34-.9v-.19Zm9.75-1.15l-4.71,.03c-.11,0-.21,.05-.28,.12-.07,.07-.11,.17-.11,.27v.24c0,.28,.07,.55,.2,.8,.13,.25,.31,.48,.55,.68,.23,.19,.51,.35,.82,.45,.31,.1,.63,.16,.96,.15h.5c.67,0,1.3-.23,1.77-.62,.47-.4,.73-.93,.73-1.49v-.24c0-.05-.01-.11-.03-.15-.02-.05-.05-.09-.09-.13-.04-.04-.09-.07-.14-.08-.05-.02-.11-.03-.16-.03Zm-9.74,8.73c.02-.28-.07-.55-.26-.76-.19-.21-.45-.34-.74-.36l-3.02-.21c-.29-.02-.57,.07-.78,.25-.22,.18-.35,.44-.37,.71l-.03,.41c-.02,.28,.07,.55,.26,.76,.19,.21,.45,.34,.74,.36l3.02,.21c.29,.02,.57-.07,.78-.25,.22-.18,.35-.44,.37-.71l.03-.41Zm10.08,.15c.01-.33-.11-.66-.35-.9-.24-.24-.56-.39-.91-.4l-2.61-.09c-.17,0-.34,.02-.5,.08-.16,.06-.31,.15-.43,.26-.13,.11-.23,.25-.3,.4-.07,.15-.11,.31-.12,.48v.19c-.02,.33,.11,.66,.34,.9,.24,.24,.56,.39,.91,.4l2.61,.09c.17,0,.34-.02,.5-.08,.16-.06,.31-.15,.43-.26s.23-.25,.3-.4c.07-.15,.11-.31,.12-.48v-.19Zm9.86-.08c0-.16-.02-.31-.08-.46-.06-.15-.15-.28-.26-.39-.11-.11-.25-.2-.39-.27-.15-.06-.31-.1-.47-.1l-2.69-.07c-.16,0-.32,.02-.47,.08-.15,.06-.29,.14-.41,.25-.12,.11-.21,.24-.28,.38-.07,.14-.1,.3-.11,.45v.41c-.02,.16,.01,.31,.07,.46,.06,.15,.15,.28,.26,.39,.11,.11,.25,.2,.39,.27,.15,.06,.31,.1,.47,.1l2.69,.07c.16,0,.32-.02,.47-.08,.15-.06,.29-.14,.41-.25,.12-.11,.21-.24,.28-.38,.07-.14,.1-.3,.11-.45v-.41Zm10.15-.26c0-.15-.04-.29-.1-.43-.06-.13-.15-.26-.26-.36s-.24-.18-.39-.23c-.14-.05-.3-.08-.45-.07l-2.92,.09c-.15,0-.3,.04-.44,.1-.14,.06-.26,.15-.37,.26-.1,.11-.19,.23-.24,.37-.05,.14-.08,.29-.07,.43l.03,.81c0,.15,.04,.29,.1,.43,.06,.13,.15,.26,.26,.36,.11,.1,.24,.18,.39,.23,.14,.05,.3,.08,.45,.07l2.92-.09c.15,0,.3-.04,.44-.1,.14-.06,.26-.15,.37-.26,.1-.11,.19-.23,.24-.37,.05-.14,.08-.29,.07-.43l-.03-.81Zm4.97-.57c-.31,.93-.28,1.66,.08,2.18,.27,.41,.85,.62,1.74,.64,24.07,.42,48.15,.89,72.25,1.4,.64,0,.95-.29,.95-.91l.04-2.94c0-.57-.29-.85-.88-.85H80.74c-.36,0-.59,.16-.7,.49Zm-15.25,7.7s-.01-.1-.03-.14c-.02-.04-.05-.08-.08-.12-.04-.03-.08-.06-.12-.08-.05-.02-.1-.03-.15-.03h-4.07s-.1,.02-.14,.04c-.05,.02-.09,.05-.12,.08-.03,.03-.06,.07-.08,.12-.02,.04-.03,.09-.03,.14l.13,35.06s.01,.1,.03,.14,.05,.08,.08,.12c.04,.03,.08,.06,.12,.08,.05,.02,.1,.03,.14,.03h4.07s.1-.02,.14-.04c.05-.02,.09-.05,.12-.08,.03-.03,.06-.07,.08-.12,.02-.04,.03-.09,.03-.14l-.13-35.06Zm7.61,33.83l1.73-.91c.48-.25,.72-.64,.72-1.17l-.06-30.98c0-.56-.29-.84-.87-.84h-3.14c-.59,0-.88,.28-.88,.85V60.11c0,.47,.24,.68,.73,.62,.3-.04,.55-.14,.74-.33,.68-.63,1.03-.95,1.04-.96Zm-52.71,20.28c5.39-15.14,26.48-15.79,29.9-.11,.11,.53,.45,.8,1.01,.8h4.57c.22,0,.43-.05,.61-.15,.19-.1,.35-.25,.46-.42,.11-.18,.18-.38,.19-.58,.01-.21-.03-.41-.12-.6-4.97-10.03-12.26-16.96-21.9-20.79-16.82-6.68-22.04,9.66-19.74,21.9,.08,.43,.36,.65,.81,.65h3.17c.5,0,.84-.23,1.01-.69Zm65.78-16.99c14.73-4.27,28.02-.91,38.19,10.06,.07,.09,.17,.14,.28,.16,.11,.02,.22-.01,.31-.08,.09-.06,.15-.16,.16-.27,.02-.11-.01-.22-.08-.3-9.52-14.77-31.87-16.15-46.71-9.98-.12,.05-.22,.13-.29,.23s-.12,.22-.12,.34c0,.12,.02,.24,.08,.35,.06,.11,.15,.2,.25,.27,3.58,2.13,5.01,.07,7.92-.79Zm-23.73,7.94c7.74-.34,14.32,2.47,19.74,8.44,1.53,1.69,2.93,1.73,5.05,1.19,.11-.03,.21-.08,.3-.15,.09-.07,.16-.16,.21-.26,.05-.1,.08-.21,.08-.32,0-.11-.02-.22-.06-.32-4.77-11.49-19.01-15.82-30.59-12.1-.7,.23-.86,.64-.48,1.25,1.03,1.64,2.95,2.4,5.75,2.28Zm28.02,1.34c10.1-2.72,21.39-1.72,29.61,4.94,.09,.08,.21,.12,.33,.12,.12,0,.24-.05,.32-.13,.09-.08,.14-.19,.14-.31,0-.12-.04-.23-.12-.32-8.6-9.69-20.31-12.27-33.27-8.82-.15,.04-.29,.12-.4,.22-.11,.1-.19,.23-.24,.38-.05,.14-.05,.29-.02,.44,.03,.15,.1,.28,.2,.4l2.41,2.78c.27,.33,.62,.43,1.04,.31Zm-64.16,8.44l18.43,.05c.06,0,.12-.02,.17-.07,.04-.04,.07-.1,.07-.16v-.09c0-1.9-.96-3.72-2.69-5.06-1.73-1.35-4.08-2.11-6.53-2.12h-.42c-1.21,0-2.42,.18-3.54,.53-1.12,.36-2.14,.88-3.01,1.54-.86,.66-1.54,1.45-2.01,2.32-.47,.87-.71,1.8-.71,2.74v.09c0,.06,.03,.12,.07,.16,.04,.04,.11,.07,.17,.07Zm48.56-1.33c-3.94-2.04-8.15-3.25-12.65-3.62-.74-.05-1.01,.26-.83,.95l.87,3.21c.13,.5,.46,.75,1,.75h11.28c1.86,0,1.97-.43,.34-1.29Zm39.98-.09c-6.61-3.26-13.68-4.18-21.19-2.75-.53,.1-.99,.39-1.31,.8-.32,.42-.47,.93-.41,1.45,.05,.51,.3,.99,.7,1.34,.4,.35,.91,.54,1.45,.54h20.44c2.1,0,2.21-.46,.34-1.38Zm20.71,7.41c0-.16-.03-.33-.1-.48s-.16-.29-.28-.4c-.12-.12-.26-.21-.42-.27-.16-.06-.32-.09-.49-.09l-127.28,.21c-.17,0-.34,.03-.49,.1-.16,.06-.3,.15-.42,.27-.12,.12-.21,.25-.28,.4-.06,.15-.1,.31-.1,.48v7.18c.01,.16,.05,.33,.11,.48,.07,.15,.16,.29,.28,.4,.12,.12,.26,.21,.42,.27,.16,.06,.32,.09,.49,.09l127.28-.21c.17,0,.34-.03,.49-.1,.16-.06,.3-.15,.42-.27,.12-.12,.21-.25,.28-.4,.06-.15,.1-.31,.1-.48v-7.18Zm-3.26,17.49l1.14-3.36c.19-.57-.03-.85-.65-.85H8.08c-.57,0-.87,.27-.9,.81-.14,2.67,1.32,3.94,4.15,3.94,39.95,0,79.79-.01,119.52-.01,.16,0,.32-.05,.46-.14,.13-.1,.23-.23,.29-.38Zm-120.08,6.43c9.79,16.91,29.18,27.01,48.91,27.89,28.63,1.27,51.67-2.97,67.89-27.66,.47-.71,.27-1.06-.6-1.06H12.02c-.1,0-.2,.03-.29,.07-.09,.05-.16,.12-.21,.2-.05,.08-.08,.18-.08,.28s.02,.19,.07,.28Zm83.6,36.91c.04-1.8,.03-3.58-.03-5.34,0-.52-.28-.74-.81-.64-16.26,3.02-32.51,3-48.76-.04-.59-.12-.88,.12-.87,.71l.18,7.77c0,.53,.29,.8,.84,.8l48.5-.04c.64,0,.95-.31,.95-.92,0-.32,0-.64-.01-.98,0-.44,0-.88,0-1.33Z"/>
</svg>