<?xml version="1.0" encoding="UTF-8"?>
<svg id="Capa_1" data-name="Capa 1" xmlns="http://www.w3.org/2000/svg" viewBox="0 0 160 155.6">
  <defs>
    <style>
      .cls-1 {
        fill: #221f20;
      }
    </style>
  </defs>
  <path class="cls-1" d="M12.29,62.81c-1.08-22.25,7.54-37.19,20.38-48.13,4.7-4,6.08-6.19,8.8-12.33,2.09-4.71,4.8,.61,7.56-2.07,.18-.17,.38-.27,.6-.27s.43,.07,.61,.23c1.48,1.32,2.96,1.33,4.45,.06,.2-.16,.42-.26,.65-.27,.23-.01,.45,.06,.66,.21,3.62,2.56,4.48,9,8.77,12.51,.23,.19,.5,.25,.76,.18,.26-.07,.49-.27,.66-.56l5.92-10.4c.41-.71,.97-1.21,1.59-1.44,.63-.23,1.29-.17,1.89,.18,1.22,.68,2.42,.63,3.61-.16,.44-.3,.87-.3,1.31,.02,1.25,.88,2.48,.91,3.68,.1,.72-.49,1.54-.57,2.31-.24,.76,.33,1.4,1.06,1.79,2.04,1.48,3.68,3.36,6.9,5.66,9.67,.26,.31,.59,.49,.94,.51,.34,.01,.68-.14,.96-.43,3.3-3.53,6.3-14.5,10.69-11.05,.22,.17,.47,.26,.73,.26,.26,0,.51-.11,.73-.29,1.33-1.12,2.67-1.12,4.03-.02,.21,.16,.44,.26,.68,.27,.24,.01,.47-.05,.68-.19,5.11-3.43,6.64,6.9,10.34,10.28,14.23,12.96,24.74,25.09,23.98,51.31-.02,.66,.21,1,.69,1.03l5.66,.26c.33,.02,.65,.21,.88,.54,.23,.33,.36,.77,.37,1.24l.17,17.56c0,.28,.05,.55,.14,.79,.09,.25,.22,.46,.37,.63,.16,.17,.34,.28,.53,.34,.19,.05,.39,.05,.59-.02,1.17-.43,2-.03,2.5,1.22,.27,.68,.41,1.85,.41,3.51,.02,21.07,.02,42.01,.01,62.83,0,.77-.22,1.52-.61,2.06-.39,.55-.92,.85-1.48,.85H1.72c-.22,0-.44-.06-.65-.18-.21-.12-.39-.3-.55-.52-.16-.22-.28-.48-.37-.77-.09-.29-.13-.6-.13-.91C0,131.7,0,109.99,.02,88.08c0-1.16,.21-2,.6-2.53,.55-.71,1.23-.84,2.02-.39,.22,.12,.45,.17,.69,.13,.23-.04,.46-.15,.65-.34,.19-.19,.35-.43,.46-.73,.11-.29,.17-.62,.17-.95l-.06-15.45c0-.52,.07-1.03,.21-1.52,.14-.48,.35-.92,.61-1.29,.26-.37,.57-.66,.91-.86,.34-.2,.71-.3,1.08-.3h4.21c.51,0,.74-.36,.72-1.07ZM81.53,10.89c-1.19-1.58-2.29-1.57-3.3,.02-.2,.3-.47,.49-.76,.51-.29,.02-.58-.12-.8-.39l-1.02-1.3c-.09-.12-.21-.21-.33-.27-.12-.05-.25-.07-.38-.04-.13,.02-.25,.09-.36,.19-.11,.1-.2,.23-.27,.38-1.96,4.22-3.7,6.88-5.21,7.99-11.51,8.4-23.63,24.2-21.44,44.58,.09,.88,.46,1.32,1.09,1.32h62.82c.2,0,.4-.11,.55-.31,.15-.2,.24-.47,.25-.76,.95-23.71-10.47-35.88-23.54-46.85-1.16-.97-2.21-3.01-3.14-6.12-.19-.6-.48-.74-.87-.39l-1.91,1.64c-.21,.19-.46,.27-.71,.23-.25-.04-.48-.19-.66-.43Zm21.37,2.05l-2.61,3.49c-.43,.57-.4,1.08,.08,1.56,10.95,10.47,18.57,25.45,17,45-.05,.59,.14,.89,.56,.89h23.14c.61,0,.96-.42,1.05-1.26,2.57-21.78-9.92-34.88-21.32-44.86-2.47-2.17-3.77-4.99-5.5-8.17-.06-.11-.13-.19-.22-.25-.09-.06-.18-.09-.28-.09s-.19,.03-.28,.09c-.09,.06-.16,.15-.22,.25-1.13,2.01-2.3,2.1-3.49,.26-.07-.12-.17-.21-.27-.28-.1-.07-.21-.11-.33-.11-.11,0-.23,.02-.33,.07-.11,.05-.21,.14-.29,.25-1.39,1.76-2.75,1.72-4.08-.14-.08-.12-.19-.2-.3-.26-.11-.05-.23-.07-.35-.04-.12,.02-.23,.08-.32,.18-.1,.09-.18,.22-.23,.36l-.64,1.68c-.2,.53-.45,.99-.76,1.4Zm-43.76,3.63l-4.07-6.83c-.07-.12-.17-.22-.27-.29-.1-.07-.22-.1-.33-.1-.12,0-.23,.04-.33,.11-.1,.07-.2,.17-.27,.3-1,1.7-2.08,1.78-3.24,.24-.39-.53-.81-.56-1.25-.1-1.43,1.51-2.79,1.49-4.08-.08-.43-.53-.81-.46-1.14,.2-2.44,4.81-4.3,7.65-5.57,8.5-12.38,8.29-23.1,24.58-20.9,44.62,.05,.49,.25,.73,.6,.73h22.74c.14,0,.27-.04,.4-.11,.13-.07,.24-.18,.34-.32,.1-.14,.17-.3,.22-.48,.05-.18,.08-.37,.08-.56-.19-19.16,5.42-33.71,16.83-43.66,.13-.11,.23-.26,.32-.43,.08-.17,.14-.37,.16-.57,.02-.21,.02-.42-.02-.62-.04-.2-.11-.39-.2-.55Zm91.01,55.53c0-.26-.07-.51-.21-.7-.13-.18-.31-.29-.5-.29H10.46c-.19,0-.36,.1-.5,.29-.13,.18-.21,.44-.21,.7v11.99c0,.26,.07,.51,.21,.7,.13,.18,.31,.29,.5,.29H149.46c.19,0,.36-.1,.5-.29,.13-.19,.21-.44,.21-.7v-11.99ZM13.79,102.83h2.46c.22,0,.42-.12,.58-.33,.15-.21,.24-.5,.24-.79l.07-8.15c0-.84-.3-1.26-.9-1.24l-10.48,.22c-.57,.01-.86,.43-.86,1.24v54.39c-.01,.05,0,.1,0,.15,.01,.05,.04,.09,.06,.12,.03,.04,.06,.06,.09,.08,.03,.02,.07,.03,.11,.02l11.26-.16c.1,0,.19-.03,.28-.08,.09-.05,.17-.13,.23-.23,.07-.1,.12-.21,.15-.34,.03-.13,.05-.26,.05-.39l-.06-8.48c0-.19-.03-.37-.09-.54-.06-.17-.15-.31-.26-.43-.11-.11-.23-.19-.37-.22-.13-.03-.27-.02-.4,.03-1.99,.83-4.25-.47-3.65-3.81,.32-1.8,1.61-2.87,3.87-3.2,.25-.04,.49-.21,.66-.48s.26-.62,.25-.98l-.25-18.43c0-.66-.24-1-.72-1.03l-1.99-.1c-.35-.01-.68-.19-.95-.51-1.12-1.33-1.3-3.1-.53-5.31,.23-.68,.62-1.03,1.15-1.03Zm12.94,1.16c.98,2.06,.78,3.79-.6,5.17-.37,.38-.79,.57-1.25,.57h-1.88c-.59,0-.88,.42-.88,1.24v18.74c0,.82,.29,1.22,.87,1.22h1.59c.51,0,1.01,.19,1.46,.54,.45,.35,.81,.84,1.06,1.42,.24,.58,.35,1.22,.31,1.85s-.22,1.21-.53,1.67c-.96,1.49-2.21,1.92-3.75,1.3-.14-.06-.29-.07-.44-.03-.15,.04-.28,.13-.39,.27-.11,.13-.2,.3-.26,.5-.06,.19-.08,.4-.06,.61l.53,7.32c.03,.49,.2,.94,.46,1.26,.26,.33,.6,.51,.95,.51l130.92,.12s.07,0,.1-.03c.03-.02,.06-.04,.08-.07,.02-.03,.04-.07,.05-.11,.01-.04,.02-.09,.02-.13v-54.98c0-.66-.23-.99-.7-.99H24.72c-.62,0-1.21,.33-1.66,.93-.45,.6-.72,1.42-.76,2.29l-.24,6.19c-.02,.32,.06,.63,.21,.87,.15,.24,.36,.39,.58,.41l2.78,.39c.48,.05,.85,.36,1.11,.93Z"/>
</svg>